<?xml version="1.0" encoding="utf-8"?>
<!-- Generator: Adobe Illustrator 14.0.0, SVG Export Plug-In . SVG Version: 6.00 Build 43363)  -->
<!DOCTYPE svg PUBLIC "-//W3C//DTD SVG 1.1//EN" "http://www.w3.org/Graphics/SVG/1.1/DTD/svg11.dtd">
<svg version="1.1" id="Layer_1" xmlns="http://www.w3.org/2000/svg" xmlns:xlink="http://www.w3.org/1999/xlink" x="0px" y="0px"
	 width="252px" height="392.5px" viewBox="0 0 252 392.5" enable-background="new 0 0 252 392.5" xml:space="preserve">
<rect width="252" height="392.5"/>
<g id="TEXT_18_">
	<text transform="matrix(0.89 0 0 1 57.1841 359.3525)" fill="#FFFF00" font-family="'MyriadPro-Regular'" font-size="45.8613">SCOUTS</text>
</g>
<g id="TEXT_20_">
	<text transform="matrix(0.89 0 0 1 68.4897 319.6621)" fill="#FFFF00" font-family="'MyriadPro-Regular'" font-size="45.8613">ROVER</text>
</g>
<g>
	<g id="LWPOLYLINE_26_">
		<g id="XMLID_2_">
			<g>
				<polygon fill="#FFFF00" points="47.85,72.69 85.04,75.55 117.7,75.55 126.25,77.57 134.25,81.2 141.42,86.31 147.46,92.7 
					152.17,100.13 155.35,108.32 131.21,108.3 128.52,104.61 125.32,101.36 121.67,98.62 117.67,96.46 78.05,94.26 77.67,94.27 
					77.31,94.35 76.96,94.5 76.64,94.7 76.38,94.96 76.14,95.27 75.99,95.6 75.88,95.97 75.84,96.34 75.84,140.59 84.02,140.59 
					84.02,161.89 75.84,161.27 75.84,207.62 75.91,208.27 76.05,208.91 76.3,209.51 76.64,210.07 77.08,210.57 82.08,215.57 
					82.22,215.76 82.34,215.98 82.42,216.21 82.43,216.46 82.42,216.7 82.34,216.94 82.22,217.15 82.08,217.34 81.88,217.5 
					81.67,217.62 81.42,217.69 81.18,217.71 49.6,217.71 49.37,217.69 49.12,217.62 48.92,217.5 48.72,217.34 48.56,217.15 
					48.46,216.94 48.38,216.7 48.35,216.46 48.38,216.21 48.46,215.98 48.56,215.76 48.72,215.57 53.71,210.57 54.24,209.94 
					54.62,209.22 54.87,208.43 54.95,207.62 54.95,93.26 54.46,88.37 53.04,83.66 50.71,79.32 47.59,75.52 46.91,74.83 46.75,74.65 
					46.63,74.44 46.56,74.22 46.54,73.99 46.54,73.76 46.6,73.53 46.7,73.32 46.83,73.13 47,72.97 47.18,72.84 47.39,72.75 
					47.62,72.69 				"/>
			</g>
			<g>
			</g>
		</g>
	</g>
	<g id="LWPOLYLINE_27_">
		<g id="XMLID_3_">
			<g>
				<polygon fill="#FFFF00" points="150.18,136.85 151.23,137.31 148.17,143.08 144.21,148.27 139.46,152.76 134.04,156.43 
					128.11,159.17 130.27,161.38 132.09,163.33 133.59,165.04 134.84,166.56 135.86,167.9 136.71,169.1 137.42,170.19 138.04,171.2 
					138.6,172.15 139.12,173.06 139.59,173.92 140.02,174.75 140.42,175.53 140.76,176.27 141.07,176.97 141.35,177.64 
					141.6,178.28 141.81,178.89 142,179.47 142.18,180.04 142.33,180.58 142.48,181.12 142.61,181.65 142.75,182.17 142.88,182.69 
					143,183.22 143.13,183.74 143.25,184.26 143.35,184.78 143.46,185.31 143.54,185.83 143.61,186.35 143.67,186.88 143.71,187.41 
					143.75,187.96 143.75,188.53 143.75,189.14 143.71,189.78 143.67,190.48 143.61,191.23 143.54,192.05 143.46,192.92 
					143.38,193.84 143.29,194.8 143.21,195.8 143.15,196.82 143.11,197.85 143.09,198.9 143.11,199.94 143.15,200.99 143.22,202.03 
					143.31,203.08 143.42,204.12 143.53,205.17 143.67,206.21 143.79,207.26 143.92,208.3 144.06,209.35 144.21,210.39 
					144.38,211.44 144.56,212.48 144.78,213.53 145.03,214.58 145.32,215.62 145.65,216.67 146.03,217.7 146.46,218.73 
					146.92,219.74 147.43,220.72 147.98,221.67 148.57,222.59 149.21,223.46 149.8,224.18 151.1,227.87 152.01,231.5 152.3,234.97 
					151.97,238.97 151.97,242.66 151.72,242.65 150.93,242.56 150.06,242.45 149.1,242.3 148.06,242.12 146.97,241.91 
					145.84,241.67 144.69,241.39 143.54,241.08 142.42,240.73 141.35,240.36 140.34,239.95 139.38,239.52 138.5,239.05 
					137.65,238.57 136.85,238.08 136.11,237.57 135.4,237.05 134.73,236.53 134.09,236 133.48,235.46 132.88,234.88 132.29,234.26 
					131.71,233.57 131.1,232.8 130.5,231.93 129.85,230.95 129.18,229.84 128.5,228.63 127.81,227.34 127.13,225.99 126.47,224.6 
					125.86,223.21 125.3,221.83 124.8,220.5 124.38,219.22 124.04,218 123.76,216.84 123.54,215.71 123.37,214.61 123.24,213.54 
					123.13,212.49 123.06,211.44 123,210.4 122.96,209.36 122.93,208.34 122.92,207.35 122.92,206.38 122.92,205.46 122.92,204.59 
					122.95,203.77 122.96,203.02 123,202.33 123.02,201.68 123.05,201.07 123.08,200.5 123.1,199.95 123.12,199.42 123.12,198.9 
					123.12,198.37 123.09,197.85 123.08,197.33 123.04,196.81 122.99,196.28 122.92,195.76 122.85,195.24 122.77,194.71 
					122.67,194.19 122.56,193.64 122.42,193.05 122.25,192.38 122.04,191.63 121.79,190.77 121.46,189.77 121.08,188.62 
					120.63,187.28 120.06,185.76 119.35,184.02 118.45,182.06 117.3,179.87 115.88,177.42 114.17,174.71 113.67,173.99 
					113.67,173.98 113.67,139.27 117.67,138.27 119.71,137.78 121.67,136.96 123.46,135.85 132.17,135.85 				"/>
			</g>
			<g>
			</g>
		</g>
	</g>
	<g id="LWPOLYLINE_28_">
		<g id="XMLID_1_">
			<g>
				<polygon fill="#FFFF00" points="118.71,197.6 118.74,198.03 118.74,198.06 109.29,197.34 109.29,243.69 109.35,244.34 
					109.5,244.98 109.75,245.59 110.09,246.15 110.52,246.65 115.51,251.64 115.67,251.83 115.79,252.05 115.87,252.28 
					115.88,252.53 115.87,252.77 115.79,253.01 115.67,253.23 115.51,253.42 115.33,253.57 115.12,253.69 114.88,253.76 
					114.63,253.78 83.05,253.78 82.81,253.76 82.58,253.69 82.37,253.57 82.17,253.42 82.01,253.23 81.89,253.01 81.83,252.77 
					81.8,252.53 81.83,252.28 81.89,252.05 82.01,251.83 82.17,251.64 87.17,246.65 87.68,246.01 88.08,245.29 88.31,244.5 
					88.39,243.69 88.39,131.14 88.08,127.2 87.16,123.36 85.63,119.71 83.56,116.35 80.35,111.94 80.21,111.76 80.08,111.56 
					80.01,111.34 79.99,111.11 80,110.88 80.04,110.65 80.14,110.44 80.27,110.25 80.45,110.08 80.63,109.96 80.84,109.86 
					81.08,109.81 81.3,109.8 118.49,112.67 154.28,112.67 157.88,112.98 161.35,113.9 168.75,117.41 175.32,122.29 180.82,128.36 
					185.03,135.39 187.78,143.1 188.98,151.2 188.69,159.07 187.04,166.77 184.09,174.08 179.93,180.76 174.68,186.63 168.5,191.51 
					161.56,195.25 167.83,201.52 172.01,207.79 175.15,214.06 176.19,218.24 177.25,222.42 177.25,226.61 176.58,234.97 
					177.25,243.33 178.28,251.69 179.75,255.81 182.39,260.05 184.09,261.75 185.46,262.97 185.55,263.04 187.08,264.12 
					188.75,265.04 190.96,265.77 192.76,266.1 197.1,266.81 199.19,266.86 202.44,266.6 203.47,266.33 205.46,265.28 205.3,267.44 
					204.61,270.01 204.58,270.08 203.29,272.44 201.04,274.53 197.1,276.78 188.75,278.87 186.92,279.1 186.85,279.1 184.55,278.87 
					178.46,278.01 178.4,278 174.26,276.62 171.23,275.2 171.19,275.18 167.83,272.6 165.63,270.63 163.65,268.26 161.82,265 
					160.85,262.81 160.8,262.72 159.03,259.18 157.8,255.53 156.83,251.47 156.81,251.37 156.33,247.51 156.33,239.15 
					156.68,234.97 156.33,230.79 155.29,226.61 152.81,219.61 151.36,216.25 149.06,212.67 149.04,212.58 148.85,211.65 
					148.68,210.71 148.52,209.75 148.38,208.76 148.25,207.75 148.12,206.72 148,205.68 147.88,204.66 147.76,203.66 147.67,202.67 
					147.57,201.7 147.51,200.75 147.47,199.82 147.46,198.9 147.47,197.97 147.51,197.04 147.57,196.1 147.64,195.16 147.72,194.24 
					147.8,193.33 147.89,192.45 147.97,191.59 148.03,190.77 148.07,189.99 148.1,189.25 148.11,188.53 148.1,187.83 148.07,187.14 
					148.02,186.47 147.96,185.81 147.86,185.17 147.75,184.54 147.64,183.93 147.51,183.33 147.38,182.75 147.25,182.19 
					147.11,181.65 146.98,181.11 146.84,180.57 146.71,180.01 146.54,179.42 146.38,178.8 146.17,178.15 145.94,177.47 
					145.69,176.76 145.4,176.02 145.31,175.79 151.11,174.34 154.88,172.55 158.25,170.09 161.1,167.04 163.33,163.51 
					164.86,159.62 165.64,155.52 165.64,151.35 164.86,147.25 163.33,143.36 161.1,139.83 158.25,136.78 154.88,134.32 
					151.11,132.53 132.29,131.48 111.38,131.48 111.02,131.52 110.67,131.61 110.34,131.76 110.04,131.97 109.79,132.23 
					109.58,132.53 109.42,132.86 109.33,133.21 109.29,133.57 109.29,176.66 110.21,176.66 110.52,177.13 112.16,179.69 
					113.47,181.97 114.52,183.99 115.35,185.77 116,187.35 116.52,188.75 116.95,190 117.31,191.11 117.62,192.06 117.85,192.86 
					118.04,193.52 118.18,194.09 118.29,194.57 118.38,195.01 118.46,195.43 118.54,195.87 118.59,196.3 118.64,196.74 
					118.68,197.17 				"/>
			</g>
			<g>
			</g>
		</g>
	</g>
</g>
<g id="TEXT_21_">
	<text transform="matrix(0.8905 0 0 1 55.5947 58.8369)" fill="#FFFF00" font-family="'MyriadPro-Regular'" font-size="45.8613">ROSKILL</text>
</g>
<g display="none">
	<g display="inline">
		<line fill="#FF0000" x1="12.598" y1="11.968" x2="12.598" y2="380.525"/>
		<line fill="#FF0000" x1="12.598" y1="380.525" x2="239.402" y2="380.525"/>
		<line fill="#FF0000" x1="239.402" y1="11.968" x2="239.402" y2="380.525"/>
		<line fill="#FF0000" x1="12.598" y1="11.968" x2="239.402" y2="11.968"/>
	</g>
	<g display="inline">
		<line fill="none" stroke="#FFFF00" x1="12.598" y1="11.968" x2="12.598" y2="380.525"/>
		<line fill="none" stroke="#FFFF00" x1="12.598" y1="380.525" x2="239.402" y2="380.525"/>
		<line fill="none" stroke="#FFFF00" x1="239.402" y1="11.968" x2="239.402" y2="380.525"/>
		<line fill="none" stroke="#FFFF00" x1="12.598" y1="11.968" x2="239.402" y2="11.968"/>
	</g>
	<g display="inline">
		<line fill="none" stroke="#006837" x1="12.598" y1="11.968" x2="12.598" y2="380.525"/>
		<line fill="none" stroke="#006837" x1="12.598" y1="380.525" x2="239.402" y2="380.525"/>
		<line fill="none" stroke="#006837" x1="239.402" y1="11.968" x2="239.402" y2="380.525"/>
		<line fill="none" stroke="#006837" x1="12.598" y1="11.968" x2="239.402" y2="11.968"/>
	</g>
</g>
<line fill="none" x1="252" y1="0" x2="0" y2="392.5"/>
<line fill="none" x1="0" y1="0" x2="252" y2="392.5"/>
<line fill="none" x1="125.91" y1="398.333" x2="125.91" y2="-14.333"/>
<line fill="none" x1="-2.309" y1="194.71" x2="252" y2="194.71"/>
<rect x="12.598" y="11.968" fill="none" stroke="#FFFF00" stroke-width="3" width="226.805" height="368.558"/>
</svg>
